<?xml version="1.0" encoding="utf-8"?>
<svg version="1.2" xmlns:xlink="http://www.w3.org/1999/xlink" width="400" height="400" viewBox="0, 0, 400,400" baseProfile="tiny-ps" xmlns="http://www.w3.org/2000/svg">
  <title>brand-logo</title>
  <g id="svgg">
    <path id="path0" d="M311.600 0.269 C 310.830 0.372,310.029 0.624,309.820 0.829 C 309.611 1.033,308.846 1.200,308.120 1.200 C 307.394 1.200,306.800 1.380,306.800 1.600 C 306.800 1.820,306.440 2.000,306.000 2.000 C 305.560 2.000,305.200 2.180,305.200 2.400 C 305.200 2.620,304.660 2.800,304.000 2.800 C 303.340 2.800,302.800 2.980,302.800 3.200 C 302.800 3.420,302.564 3.600,302.275 3.600 C 301.987 3.600,301.364 3.960,300.892 4.400 C 300.420 4.840,299.863 5.200,299.655 5.200 C 299.033 5.200,296.000 6.922,296.000 7.274 C 296.000 7.453,295.764 7.600,295.475 7.600 C 295.187 7.600,294.591 7.936,294.150 8.346 C 293.710 8.756,292.941 9.311,292.441 9.578 C 290.632 10.546,281.600 19.262,281.600 20.039 C 281.600 20.256,281.240 20.820,280.800 21.292 C 280.360 21.764,280.000 22.387,280.000 22.675 C 280.000 22.964,279.820 23.200,279.600 23.200 C 279.380 23.200,279.200 23.560,279.200 24.000 C 279.200 24.440,279.020 24.800,278.800 24.800 C 278.580 24.800,278.400 25.160,278.400 25.600 C 278.400 26.470,277.974 26.596,276.895 26.047 C 276.513 25.852,275.660 25.471,275.000 25.200 C 274.340 24.929,273.487 24.548,273.105 24.353 C 272.723 24.159,272.048 24.000,271.605 24.000 C 271.162 24.000,270.800 23.820,270.800 23.600 C 270.800 23.380,270.451 23.200,270.024 23.200 C 269.597 23.200,269.136 23.020,269.000 22.800 C 268.864 22.580,268.313 22.400,267.776 22.400 C 267.239 22.400,266.800 22.220,266.800 22.000 C 266.800 21.780,266.260 21.600,265.600 21.600 C 264.940 21.600,264.400 21.420,264.400 21.200 C 264.400 20.980,264.051 20.800,263.624 20.800 C 263.197 20.800,262.736 20.620,262.600 20.400 C 262.464 20.180,261.924 20.000,261.400 20.000 C 260.876 20.000,260.336 19.820,260.200 19.600 C 260.064 19.380,259.524 19.200,259.000 19.200 C 258.476 19.200,257.936 19.020,257.800 18.800 C 257.664 18.580,257.034 18.400,256.400 18.400 C 255.766 18.400,255.136 18.220,255.000 18.000 C 254.864 17.780,254.324 17.600,253.800 17.600 C 253.276 17.600,252.736 17.420,252.600 17.200 C 252.464 16.980,251.744 16.800,251.000 16.800 C 250.256 16.800,249.536 16.620,249.400 16.400 C 249.264 16.180,248.533 16.000,247.776 16.000 C 247.019 16.000,246.400 15.820,246.400 15.600 C 246.400 15.380,245.691 15.200,244.824 15.200 C 243.957 15.200,243.136 15.020,243.000 14.800 C 242.864 14.580,242.054 14.400,241.200 14.400 C 240.346 14.400,239.536 14.220,239.400 14.000 C 239.264 13.780,238.364 13.600,237.400 13.600 C 236.436 13.600,235.536 13.420,235.400 13.200 C 235.264 12.980,234.184 12.800,233.000 12.800 C 231.816 12.800,230.736 12.620,230.600 12.400 C 230.464 12.180,229.229 12.000,227.856 12.000 C 226.483 12.000,225.189 11.834,224.980 11.630 C 223.227 9.923,176.773 9.923,175.020 11.630 C 174.811 11.834,173.517 12.000,172.144 12.000 C 170.771 12.000,169.536 12.180,169.400 12.400 C 169.264 12.620,168.184 12.800,167.000 12.800 C 165.816 12.800,164.736 12.980,164.600 13.200 C 164.464 13.420,163.564 13.600,162.600 13.600 C 161.636 13.600,160.736 13.780,160.600 14.000 C 160.464 14.220,159.654 14.400,158.800 14.400 C 157.946 14.400,157.136 14.580,157.000 14.800 C 156.864 15.020,156.043 15.200,155.176 15.200 C 154.309 15.200,153.600 15.380,153.600 15.600 C 153.600 15.820,152.981 16.000,152.224 16.000 C 151.467 16.000,150.736 16.180,150.600 16.400 C 150.464 16.620,149.744 16.800,149.000 16.800 C 148.256 16.800,147.536 16.980,147.400 17.200 C 147.264 17.420,146.724 17.600,146.200 17.600 C 145.676 17.600,145.136 17.780,145.000 18.000 C 144.864 18.220,144.234 18.400,143.600 18.400 C 142.966 18.400,142.336 18.580,142.200 18.800 C 142.064 19.020,141.524 19.200,141.000 19.200 C 140.476 19.200,139.936 19.380,139.800 19.600 C 139.664 19.820,139.124 20.000,138.600 20.000 C 138.076 20.000,137.536 20.180,137.400 20.400 C 137.264 20.620,136.803 20.800,136.376 20.800 C 135.949 20.800,135.600 20.980,135.600 21.200 C 135.600 21.420,135.060 21.600,134.400 21.600 C 133.740 21.600,133.200 21.780,133.200 22.000 C 133.200 22.220,132.761 22.400,132.224 22.400 C 131.687 22.400,131.136 22.580,131.000 22.800 C 130.864 23.020,130.403 23.200,129.976 23.200 C 129.549 23.200,129.200 23.380,129.200 23.600 C 129.200 23.820,128.838 24.000,128.395 24.000 C 127.952 24.000,127.277 24.159,126.895 24.353 C 126.158 24.728,124.327 25.507,123.000 26.010 C 120.669 26.895,111.214 31.727,110.484 32.408 C 110.016 32.844,109.396 33.200,109.105 33.200 C 108.814 33.200,108.317 33.560,108.000 34.000 C 107.683 34.440,107.103 34.800,106.712 34.800 C 106.320 34.800,106.000 34.980,106.000 35.200 C 106.000 35.420,105.640 35.600,105.200 35.600 C 104.760 35.600,104.400 35.780,104.400 36.000 C 104.400 36.220,104.080 36.400,103.688 36.400 C 103.297 36.400,102.717 36.760,102.400 37.200 C 102.083 37.640,101.503 38.000,101.112 38.000 C 100.720 38.000,100.400 38.180,100.400 38.400 C 100.400 38.620,100.040 38.800,99.600 38.800 C 99.160 38.800,98.800 38.980,98.800 39.200 C 98.800 39.420,98.530 39.600,98.200 39.600 C 97.870 39.600,97.600 39.759,97.600 39.953 C 97.600 40.148,97.285 40.407,96.900 40.529 C 96.259 40.732,94.431 41.767,93.417 42.502 C 93.188 42.668,91.740 43.648,90.200 44.679 C 88.660 45.710,87.162 46.789,86.871 47.077 C 86.581 47.365,86.184 47.600,85.990 47.600 C 85.795 47.600,85.223 48.009,84.718 48.509 C 84.213 49.008,83.172 49.861,82.404 50.404 C 80.767 51.562,79.678 52.515,76.129 55.900 C 74.687 57.275,73.353 58.400,73.164 58.400 C 72.717 58.400,58.400 72.717,58.400 73.164 C 58.400 73.353,57.275 74.687,55.900 76.129 C 52.515 79.678,51.562 80.767,50.404 82.404 C 49.861 83.172,49.008 84.213,48.509 84.718 C 48.009 85.223,47.600 85.780,47.600 85.956 C 47.600 86.132,47.150 86.799,46.600 87.438 C 46.051 88.077,45.601 88.743,45.600 88.917 C 45.600 89.091,45.225 89.631,44.766 90.117 C 44.307 90.603,43.652 91.540,43.310 92.200 C 42.968 92.860,42.578 93.490,42.444 93.600 C 42.058 93.917,40.773 96.130,40.529 96.900 C 40.407 97.285,40.148 97.600,39.953 97.600 C 39.759 97.600,39.600 97.870,39.600 98.200 C 39.600 98.530,39.420 98.800,39.200 98.800 C 38.980 98.800,38.800 99.160,38.800 99.600 C 38.800 100.040,38.620 100.400,38.400 100.400 C 38.180 100.400,38.000 100.720,38.000 101.112 C 38.000 101.503,37.640 102.083,37.200 102.400 C 36.760 102.717,36.400 103.297,36.400 103.688 C 36.400 104.080,36.220 104.400,36.000 104.400 C 35.780 104.400,35.600 104.760,35.600 105.200 C 35.600 105.640,35.420 106.000,35.200 106.000 C 34.980 106.000,34.800 106.320,34.800 106.712 C 34.800 107.103,34.440 107.683,34.000 108.000 C 33.560 108.317,33.200 108.882,33.200 109.255 C 33.200 109.628,33.038 109.993,32.839 110.067 C 32.081 110.347,26.400 121.415,26.400 122.611 C 26.400 122.935,26.220 123.200,26.000 123.200 C 25.780 123.200,25.600 123.472,25.600 123.805 C 25.600 124.138,25.441 124.723,25.247 125.105 C 25.052 125.487,24.692 126.295,24.447 126.900 C 24.201 127.505,23.799 128.495,23.553 129.100 C 23.308 129.705,22.948 130.513,22.753 130.895 C 22.559 131.277,22.400 131.952,22.400 132.395 C 22.400 132.838,22.220 133.200,22.000 133.200 C 21.780 133.200,21.600 133.740,21.600 134.400 C 21.600 135.060,21.420 135.600,21.200 135.600 C 20.980 135.600,20.800 135.949,20.800 136.376 C 20.800 136.803,20.620 137.264,20.400 137.400 C 20.180 137.536,20.000 137.999,20.000 138.429 C 20.000 138.859,19.838 139.523,19.639 139.905 C 19.440 140.287,19.063 141.410,18.800 142.400 C 18.537 143.390,18.160 144.513,17.961 144.895 C 17.762 145.277,17.600 145.941,17.600 146.371 C 17.600 146.801,17.420 147.264,17.200 147.400 C 16.980 147.536,16.800 148.256,16.800 149.000 C 16.800 149.744,16.620 150.464,16.400 150.600 C 16.180 150.736,16.000 151.456,16.000 152.200 C 16.000 152.944,15.820 153.664,15.600 153.800 C 15.380 153.936,15.200 154.656,15.200 155.400 C 15.200 156.144,15.020 156.864,14.800 157.000 C 14.580 157.136,14.400 157.946,14.400 158.800 C 14.400 159.654,14.220 160.464,14.000 160.600 C 13.780 160.736,13.600 161.636,13.600 162.600 C 13.600 163.564,13.420 164.464,13.200 164.600 C 12.980 164.736,12.800 165.816,12.800 167.000 C 12.800 168.184,12.620 169.264,12.400 169.400 C 12.180 169.536,12.000 170.771,12.000 172.144 C 12.000 173.517,11.834 174.811,11.630 175.020 C 9.937 176.759,9.937 223.241,11.630 224.980 C 11.834 225.189,12.000 226.483,12.000 227.856 C 12.000 229.229,12.180 230.464,12.400 230.600 C 12.620 230.736,12.800 231.816,12.800 233.000 C 12.800 234.184,12.980 235.264,13.200 235.400 C 13.420 235.536,13.600 236.436,13.600 237.400 C 13.600 238.364,13.780 239.264,14.000 239.400 C 14.220 239.536,14.400 240.346,14.400 241.200 C 14.400 242.054,14.580 242.864,14.800 243.000 C 15.020 243.136,15.200 243.856,15.200 244.600 C 15.200 245.344,15.380 246.064,15.600 246.200 C 15.820 246.336,16.000 247.056,16.000 247.800 C 16.000 248.544,16.180 249.264,16.400 249.400 C 16.620 249.536,16.800 250.256,16.800 251.000 C 16.800 251.744,16.980 252.464,17.200 252.600 C 17.420 252.736,17.600 253.199,17.600 253.629 C 17.600 254.059,17.762 254.723,17.961 255.105 C 18.160 255.487,18.537 256.610,18.800 257.600 C 19.063 258.590,19.440 259.713,19.639 260.095 C 19.838 260.477,20.000 261.141,20.000 261.571 C 20.000 262.001,20.180 262.464,20.400 262.600 C 20.620 262.736,20.800 263.197,20.800 263.624 C 20.800 264.051,20.980 264.400,21.200 264.400 C 21.420 264.400,21.600 264.940,21.600 265.600 C 21.600 266.260,21.780 266.800,22.000 266.800 C 22.220 266.800,22.400 267.162,22.400 267.605 C 22.400 268.048,22.559 268.723,22.753 269.105 C 22.948 269.487,23.284 270.250,23.500 270.800 C 24.189 272.554,24.883 274.179,25.247 274.895 C 25.441 275.277,25.600 275.862,25.600 276.195 C 25.600 276.528,25.780 276.800,26.000 276.800 C 26.220 276.800,26.400 277.160,26.400 277.600 C 26.400 278.048,26.133 278.400,25.795 278.400 C 25.239 278.400,23.676 279.123,23.200 279.601 C 23.090 279.711,22.505 280.056,21.900 280.368 C 21.295 280.680,20.800 281.085,20.800 281.268 C 20.800 281.450,20.542 281.600,20.227 281.600 C 19.415 281.600,10.000 291.114,10.000 291.935 C 10.000 292.108,9.680 292.598,9.289 293.025 C 7.755 294.698,5.200 298.825,5.200 299.629 C 5.200 299.851,4.840 300.420,4.400 300.892 C 3.960 301.364,3.600 301.987,3.600 302.275 C 3.600 302.564,3.420 302.800,3.200 302.800 C 2.980 302.800,2.800 303.340,2.800 304.000 C 2.800 304.660,2.620 305.200,2.400 305.200 C 2.180 305.200,2.000 305.560,2.000 306.000 C 2.000 306.440,1.820 306.800,1.600 306.800 C 1.380 306.800,1.200 307.394,1.200 308.120 C 1.200 308.846,0.975 309.665,0.700 309.940 C -0.020 310.661,-0.020 332.141,0.700 332.860 C 0.975 333.135,1.200 333.853,1.200 334.456 C 1.200 335.059,1.380 335.664,1.600 335.800 C 1.820 335.936,2.000 336.476,2.000 337.000 C 2.000 337.524,2.180 338.064,2.400 338.200 C 2.620 338.336,2.800 338.876,2.800 339.400 C 2.800 339.924,2.980 340.464,3.200 340.600 C 3.420 340.736,3.600 341.197,3.600 341.624 C 3.600 342.051,3.780 342.400,4.000 342.400 C 4.220 342.400,4.400 342.760,4.400 343.200 C 4.400 343.640,4.580 344.000,4.800 344.000 C 5.020 344.000,5.200 344.360,5.200 344.800 C 5.200 345.240,5.380 345.600,5.600 345.600 C 5.820 345.600,6.000 345.960,6.000 346.400 C 6.000 346.840,6.180 347.200,6.400 347.200 C 6.620 347.200,6.800 347.470,6.800 347.800 C 6.800 348.130,6.980 348.400,7.200 348.400 C 7.420 348.400,7.600 348.670,7.600 349.000 C 7.600 349.330,7.780 349.600,8.000 349.600 C 8.220 349.600,8.400 349.872,8.400 350.205 C 8.400 350.998,9.031 352.096,11.100 354.903 C 12.035 356.171,12.800 357.315,12.800 357.444 C 12.800 357.573,13.340 358.183,14.000 358.800 C 14.660 359.417,15.200 360.129,15.200 360.383 C 15.200 360.637,16.280 361.904,17.600 363.200 C 18.920 364.496,20.000 365.717,20.000 365.914 C 20.000 366.251,20.692 367.036,25.238 371.852 C 27.482 374.230,29.803 376.322,31.629 377.614 C 32.383 378.148,34.387 379.983,36.083 381.692 C 37.778 383.401,39.371 384.800,39.622 384.800 C 39.874 384.800,40.583 385.340,41.200 386.000 C 41.817 386.660,42.427 387.200,42.556 387.200 C 42.685 387.200,43.828 387.981,45.096 388.935 C 46.363 389.890,47.985 390.924,48.700 391.233 C 49.415 391.542,50.000 391.931,50.000 392.098 C 50.000 392.264,50.270 392.400,50.600 392.400 C 50.930 392.400,51.200 392.580,51.200 392.800 C 51.200 393.020,51.560 393.200,52.000 393.200 C 52.440 393.200,52.800 393.380,52.800 393.600 C 52.800 393.820,53.160 394.000,53.600 394.000 C 54.040 394.000,54.400 394.180,54.400 394.400 C 54.400 394.620,54.760 394.800,55.200 394.800 C 55.640 394.800,56.000 394.980,56.000 395.200 C 56.000 395.420,56.360 395.600,56.800 395.600 C 57.240 395.600,57.600 395.780,57.600 396.000 C 57.600 396.220,57.949 396.400,58.376 396.400 C 58.803 396.400,59.264 396.580,59.400 396.800 C 59.536 397.020,60.076 397.200,60.600 397.200 C 61.124 397.200,61.664 397.380,61.800 397.600 C 61.936 397.820,62.476 398.000,63.000 398.000 C 63.524 398.000,64.064 398.180,64.200 398.400 C 64.336 398.620,64.941 398.800,65.544 398.800 C 66.147 398.800,66.865 399.025,67.140 399.300 C 67.859 400.020,89.339 400.020,90.060 399.300 C 90.335 399.025,91.154 398.800,91.880 398.800 C 92.606 398.800,93.200 398.620,93.200 398.400 C 93.200 398.180,93.560 398.000,94.000 398.000 C 94.440 398.000,94.800 397.820,94.800 397.600 C 94.800 397.380,95.340 397.200,96.000 397.200 C 96.660 397.200,97.200 397.020,97.200 396.800 C 97.200 396.580,97.436 396.400,97.725 396.400 C 98.013 396.400,98.636 396.040,99.108 395.600 C 99.580 395.160,100.137 394.800,100.345 394.800 C 100.967 394.800,104.000 393.078,104.000 392.726 C 104.000 392.547,104.225 392.400,104.500 392.400 C 104.775 392.399,105.523 391.949,106.162 391.400 C 106.801 390.850,107.463 390.400,107.631 390.400 C 108.355 390.400,118.400 380.658,118.400 379.956 C 118.400 379.742,118.760 379.180,119.200 378.708 C 119.640 378.236,120.000 377.613,120.000 377.325 C 120.000 377.036,120.180 376.800,120.400 376.800 C 120.620 376.800,120.800 376.440,120.800 376.000 C 120.800 375.560,120.980 375.200,121.200 375.200 C 121.420 375.200,121.600 374.840,121.600 374.400 C 121.600 373.530,122.026 373.404,123.105 373.953 C 123.487 374.148,124.340 374.529,125.000 374.800 C 125.660 375.071,126.513 375.452,126.895 375.647 C 127.277 375.841,127.952 376.000,128.395 376.000 C 128.838 376.000,129.200 376.180,129.200 376.400 C 129.200 376.620,129.549 376.800,129.976 376.800 C 130.403 376.800,130.864 376.980,131.000 377.200 C 131.136 377.420,131.687 377.600,132.224 377.600 C 132.761 377.600,133.200 377.780,133.200 378.000 C 133.200 378.220,133.740 378.400,134.400 378.400 C 135.060 378.400,135.600 378.580,135.600 378.800 C 135.600 379.020,135.949 379.200,136.376 379.200 C 136.803 379.200,137.264 379.380,137.400 379.600 C 137.536 379.820,138.076 380.000,138.600 380.000 C 139.124 380.000,139.664 380.180,139.800 380.400 C 139.936 380.620,140.476 380.800,141.000 380.800 C 141.524 380.800,142.064 380.980,142.200 381.200 C 142.336 381.420,142.966 381.600,143.600 381.600 C 144.234 381.600,144.864 381.780,145.000 382.000 C 145.136 382.220,145.676 382.400,146.200 382.400 C 146.724 382.400,147.264 382.580,147.400 382.800 C 147.536 383.020,148.256 383.200,149.000 383.200 C 149.744 383.200,150.464 383.380,150.600 383.600 C 150.736 383.820,151.467 384.000,152.224 384.000 C 152.981 384.000,153.600 384.180,153.600 384.400 C 153.600 384.620,154.309 384.800,155.176 384.800 C 156.043 384.800,156.864 384.980,157.000 385.200 C 157.136 385.420,157.946 385.600,158.800 385.600 C 159.654 385.600,160.464 385.780,160.600 386.000 C 160.736 386.220,161.636 386.400,162.600 386.400 C 163.564 386.400,164.464 386.580,164.600 386.800 C 164.736 387.020,165.816 387.200,167.000 387.200 C 168.184 387.200,169.264 387.380,169.400 387.600 C 169.536 387.820,170.771 388.000,172.144 388.000 C 173.517 388.000,174.811 388.166,175.020 388.370 C 176.773 390.077,223.227 390.077,224.980 388.370 C 225.189 388.166,226.483 388.000,227.856 388.000 C 229.229 388.000,230.464 387.820,230.600 387.600 C 230.736 387.380,231.816 387.200,233.000 387.200 C 234.184 387.200,235.264 387.020,235.400 386.800 C 235.536 386.580,236.436 386.400,237.400 386.400 C 238.364 386.400,239.264 386.220,239.400 386.000 C 239.536 385.780,240.346 385.600,241.200 385.600 C 242.054 385.600,242.864 385.420,243.000 385.200 C 243.136 384.980,243.957 384.800,244.824 384.800 C 245.691 384.800,246.400 384.620,246.400 384.400 C 246.400 384.180,247.019 384.000,247.776 384.000 C 248.533 384.000,249.264 383.820,249.400 383.600 C 249.536 383.380,250.256 383.200,251.000 383.200 C 251.744 383.200,252.464 383.020,252.600 382.800 C 252.736 382.580,253.276 382.400,253.800 382.400 C 254.324 382.400,254.864 382.220,255.000 382.000 C 255.136 381.780,255.766 381.600,256.400 381.600 C 257.034 381.600,257.664 381.420,257.800 381.200 C 257.936 380.980,258.476 380.800,259.000 380.800 C 259.524 380.800,260.064 380.620,260.200 380.400 C 260.336 380.180,260.876 380.000,261.400 380.000 C 261.924 380.000,262.464 379.820,262.600 379.600 C 262.736 379.380,263.197 379.200,263.624 379.200 C 264.051 379.200,264.400 379.020,264.400 378.800 C 264.400 378.580,264.940 378.400,265.600 378.400 C 266.260 378.400,266.800 378.220,266.800 378.000 C 266.800 377.780,267.239 377.600,267.776 377.600 C 268.313 377.600,268.864 377.420,269.000 377.200 C 269.136 376.980,269.597 376.800,270.024 376.800 C 270.451 376.800,270.800 376.620,270.800 376.400 C 270.800 376.180,271.162 376.000,271.605 376.000 C 272.048 376.000,272.723 375.841,273.105 375.647 C 273.756 375.316,274.746 374.897,276.900 374.043 C 279.571 372.984,288.788 368.271,289.516 367.592 C 289.984 367.156,290.604 366.800,290.895 366.800 C 291.186 366.800,291.683 366.440,292.000 366.000 C 292.317 365.560,292.897 365.200,293.288 365.200 C 293.680 365.200,294.000 365.020,294.000 364.800 C 294.000 364.580,294.360 364.400,294.800 364.400 C 295.240 364.400,295.600 364.220,295.600 364.000 C 295.600 363.780,295.920 363.600,296.312 363.600 C 296.703 363.600,297.283 363.240,297.600 362.800 C 297.917 362.360,298.497 362.000,298.888 362.000 C 299.280 362.000,299.600 361.820,299.600 361.600 C 299.600 361.380,299.960 361.200,300.400 361.200 C 300.840 361.200,301.200 361.020,301.200 360.800 C 301.200 360.580,301.470 360.400,301.800 360.400 C 302.130 360.400,302.400 360.241,302.400 360.047 C 302.400 359.852,302.715 359.593,303.100 359.471 C 303.741 359.268,305.569 358.233,306.583 357.498 C 306.812 357.332,308.260 356.352,309.800 355.321 C 311.340 354.290,312.838 353.211,313.129 352.923 C 313.419 352.635,313.816 352.400,314.010 352.400 C 314.205 352.400,314.777 351.991,315.282 351.491 C 315.787 350.992,316.828 350.139,317.596 349.596 C 319.233 348.438,320.322 347.485,323.871 344.100 C 325.313 342.725,326.647 341.600,326.836 341.600 C 327.283 341.600,341.600 327.283,341.600 326.836 C 341.600 326.647,342.725 325.313,344.100 323.871 C 347.485 320.322,348.438 319.233,349.596 317.596 C 350.139 316.828,350.992 315.787,351.491 315.282 C 351.991 314.777,352.400 314.220,352.400 314.044 C 352.400 313.868,352.850 313.201,353.400 312.562 C 353.949 311.923,354.399 311.257,354.400 311.083 C 354.400 310.909,354.775 310.369,355.234 309.883 C 355.693 309.397,356.348 308.460,356.690 307.800 C 357.032 307.140,357.422 306.510,357.556 306.400 C 357.942 306.083,359.227 303.870,359.471 303.100 C 359.593 302.715,359.852 302.400,360.047 302.400 C 360.241 302.400,360.400 302.130,360.400 301.800 C 360.400 301.470,360.580 301.200,360.800 301.200 C 361.020 301.200,361.200 300.840,361.200 300.400 C 361.200 299.960,361.380 299.600,361.600 299.600 C 361.820 299.600,362.000 299.280,362.000 298.888 C 362.000 298.497,362.360 297.917,362.800 297.600 C 363.240 297.283,363.600 296.703,363.600 296.312 C 363.600 295.920,363.780 295.600,364.000 295.600 C 364.220 295.600,364.400 295.240,364.400 294.800 C 364.400 294.360,364.580 294.000,364.800 294.000 C 365.020 294.000,365.200 293.680,365.200 293.288 C 365.200 292.897,365.560 292.317,366.000 292.000 C 366.440 291.683,366.800 291.118,366.800 290.745 C 366.800 290.372,366.962 290.007,367.161 289.933 C 367.919 289.653,373.600 278.585,373.600 277.389 C 373.600 277.065,373.780 276.800,374.000 276.800 C 374.220 276.800,374.400 276.528,374.400 276.195 C 374.400 275.862,374.559 275.277,374.753 274.895 C 374.948 274.513,375.284 273.750,375.500 273.200 C 376.189 271.446,376.883 269.821,377.247 269.105 C 377.441 268.723,377.600 268.048,377.600 267.605 C 377.600 267.162,377.780 266.800,378.000 266.800 C 378.220 266.800,378.400 266.260,378.400 265.600 C 378.400 264.940,378.580 264.400,378.800 264.400 C 379.020 264.400,379.200 264.051,379.200 263.624 C 379.200 263.197,379.380 262.736,379.600 262.600 C 379.820 262.464,380.000 262.001,380.000 261.571 C 380.000 261.141,380.162 260.477,380.361 260.095 C 380.560 259.713,380.937 258.590,381.200 257.600 C 381.463 256.610,381.840 255.487,382.039 255.105 C 382.238 254.723,382.400 254.059,382.400 253.629 C 382.400 253.199,382.580 252.736,382.800 252.600 C 383.020 252.464,383.200 251.744,383.200 251.000 C 383.200 250.256,383.380 249.536,383.600 249.400 C 383.820 249.264,384.000 248.544,384.000 247.800 C 384.000 247.056,384.180 246.336,384.400 246.200 C 384.620 246.064,384.800 245.344,384.800 244.600 C 384.800 243.856,384.980 243.136,385.200 243.000 C 385.420 242.864,385.600 242.054,385.600 241.200 C 385.600 240.346,385.780 239.536,386.000 239.400 C 386.220 239.264,386.400 238.364,386.400 237.400 C 386.400 236.436,386.580 235.536,386.800 235.400 C 387.020 235.264,387.200 234.184,387.200 233.000 C 387.200 231.816,387.380 230.736,387.600 230.600 C 387.820 230.464,388.000 229.229,388.000 227.856 C 388.000 226.483,388.166 225.189,388.370 224.980 C 389.294 224.031,390.087 201.761,389.584 190.900 C 388.987 178.030,388.790 175.452,388.370 175.020 C 388.166 174.811,388.000 173.517,388.000 172.144 C 388.000 170.771,387.820 169.536,387.600 169.400 C 387.380 169.264,387.200 168.184,387.200 167.000 C 387.200 165.816,387.020 164.736,386.800 164.600 C 386.580 164.464,386.400 163.564,386.400 162.600 C 386.400 161.636,386.220 160.736,386.000 160.600 C 385.780 160.464,385.600 159.654,385.600 158.800 C 385.600 157.946,385.420 157.136,385.200 157.000 C 384.980 156.864,384.800 156.144,384.800 155.400 C 384.800 154.656,384.620 153.936,384.400 153.800 C 384.180 153.664,384.000 152.944,384.000 152.200 C 384.000 151.456,383.820 150.736,383.600 150.600 C 383.380 150.464,383.200 149.744,383.200 149.000 C 383.200 148.256,383.020 147.536,382.800 147.400 C 382.580 147.264,382.400 146.801,382.400 146.371 C 382.400 145.941,382.238 145.277,382.039 144.895 C 381.840 144.513,381.463 143.390,381.200 142.400 C 380.937 141.410,380.560 140.287,380.361 139.905 C 380.162 139.523,380.000 138.859,380.000 138.429 C 380.000 137.999,379.820 137.536,379.600 137.400 C 379.380 137.264,379.200 136.803,379.200 136.376 C 379.200 135.949,379.020 135.600,378.800 135.600 C 378.580 135.600,378.400 135.060,378.400 134.400 C 378.400 133.740,378.220 133.200,378.000 133.200 C 377.780 133.200,377.600 132.838,377.600 132.395 C 377.600 131.952,377.441 131.277,377.247 130.895 C 377.052 130.513,376.716 129.750,376.500 129.200 C 375.811 127.446,375.117 125.821,374.753 125.105 C 374.559 124.723,374.400 124.138,374.400 123.805 C 374.400 123.472,374.220 123.200,374.000 123.200 C 373.780 123.200,373.600 122.840,373.600 122.400 C 373.600 121.952,373.867 121.600,374.205 121.600 C 374.761 121.600,376.324 120.877,376.800 120.399 C 376.910 120.289,377.495 119.944,378.100 119.632 C 378.705 119.320,379.200 118.915,379.200 118.732 C 379.200 118.550,379.460 118.400,379.778 118.400 C 380.631 118.400,390.000 108.935,390.000 108.072 C 390.000 107.896,390.320 107.402,390.711 106.975 C 392.245 105.302,394.800 101.175,394.800 100.371 C 394.800 100.149,395.160 99.580,395.600 99.108 C 396.040 98.636,396.400 98.013,396.400 97.725 C 396.400 97.436,396.580 97.200,396.800 97.200 C 397.020 97.200,397.200 96.660,397.200 96.000 C 397.200 95.340,397.380 94.800,397.600 94.800 C 397.820 94.800,398.000 94.440,398.000 94.000 C 398.000 93.560,398.180 93.200,398.400 93.200 C 398.620 93.200,398.800 92.606,398.800 91.880 C 398.800 91.154,399.025 90.335,399.300 90.060 C 399.676 89.684,399.800 86.834,399.800 78.600 C 399.800 70.365,399.676 67.515,399.300 67.140 C 399.025 66.865,398.800 66.147,398.800 65.544 C 398.800 64.941,398.620 64.336,398.400 64.200 C 398.180 64.064,398.000 63.524,398.000 63.000 C 398.000 62.476,397.820 61.936,397.600 61.800 C 397.380 61.664,397.200 61.124,397.200 60.600 C 397.200 60.076,397.020 59.536,396.800 59.400 C 396.580 59.264,396.400 58.803,396.400 58.376 C 396.400 57.949,396.220 57.600,396.000 57.600 C 395.780 57.600,395.600 57.240,395.600 56.800 C 395.600 56.360,395.420 56.000,395.200 56.000 C 394.980 56.000,394.800 55.640,394.800 55.200 C 394.800 54.760,394.620 54.400,394.400 54.400 C 394.180 54.400,394.000 54.040,394.000 53.600 C 394.000 53.160,393.820 52.800,393.600 52.800 C 393.380 52.800,393.200 52.440,393.200 52.000 C 393.200 51.560,393.041 51.200,392.847 51.200 C 392.652 51.200,392.393 50.885,392.271 50.500 C 391.957 49.509,390.868 47.763,388.900 45.096 C 387.965 43.828,387.200 42.685,387.200 42.556 C 387.200 42.427,386.660 41.817,386.000 41.200 C 385.340 40.583,384.800 39.871,384.800 39.617 C 384.800 39.363,383.747 38.122,382.461 36.859 C 381.174 35.596,380.049 34.356,379.961 34.103 C 379.722 33.419,374.943 28.153,372.258 25.614 C 367.197 20.829,366.260 20.000,365.914 20.000 C 365.717 20.000,364.496 18.920,363.200 17.600 C 361.904 16.280,360.637 15.200,360.383 15.200 C 360.129 15.200,359.417 14.660,358.800 14.000 C 358.183 13.340,357.573 12.800,357.444 12.800 C 357.315 12.800,356.172 12.019,354.904 11.065 C 353.637 10.110,352.015 9.076,351.300 8.767 C 350.585 8.458,350.000 8.069,350.000 7.902 C 350.000 7.736,349.730 7.600,349.400 7.600 C 349.070 7.600,348.800 7.420,348.800 7.200 C 348.800 6.980,348.440 6.800,348.000 6.800 C 347.560 6.800,347.200 6.620,347.200 6.400 C 347.200 6.180,346.840 6.000,346.400 6.000 C 345.960 6.000,345.600 5.820,345.600 5.600 C 345.600 5.380,345.240 5.200,344.800 5.200 C 344.360 5.200,344.000 5.020,344.000 4.800 C 344.000 4.580,343.640 4.400,343.200 4.400 C 342.760 4.400,342.400 4.220,342.400 4.000 C 342.400 3.780,342.051 3.600,341.624 3.600 C 341.197 3.600,340.736 3.420,340.600 3.200 C 340.464 2.980,339.924 2.800,339.400 2.800 C 338.876 2.800,338.336 2.620,338.200 2.400 C 338.064 2.180,337.524 2.000,337.000 2.000 C 336.476 2.000,335.936 1.820,335.800 1.600 C 335.664 1.380,335.059 1.200,334.456 1.200 C 333.853 1.200,333.143 0.983,332.878 0.718 C 332.388 0.228,314.679 -0.145,311.600 0.269 M320.800 25.600 C 320.800 25.820,321.509 26.000,322.376 26.000 C 323.243 26.000,324.064 26.180,324.200 26.400 C 324.336 26.620,325.067 26.800,325.824 26.800 C 326.581 26.800,327.200 26.980,327.200 27.200 C 327.200 27.420,327.650 27.600,328.200 27.600 C 328.750 27.600,329.200 27.780,329.200 28.000 C 329.200 28.220,329.639 28.400,330.176 28.400 C 330.713 28.400,331.264 28.580,331.400 28.800 C 331.536 29.020,331.997 29.200,332.424 29.200 C 332.851 29.200,333.200 29.380,333.200 29.600 C 333.200 29.820,333.478 30.000,333.817 30.000 C 334.156 30.000,334.820 30.360,335.292 30.800 C 335.764 31.240,336.387 31.600,336.675 31.600 C 336.964 31.600,337.200 31.780,337.200 32.000 C 337.200 32.220,337.476 32.400,337.813 32.400 C 338.151 32.400,339.033 32.985,339.773 33.700 C 341.164 35.042,341.787 35.548,344.727 37.723 C 345.677 38.425,347.698 40.203,349.219 41.672 C 350.739 43.142,352.503 44.652,353.137 45.027 C 353.772 45.402,354.596 46.225,354.969 46.855 C 355.342 47.486,356.671 49.060,357.923 50.352 C 359.175 51.645,360.920 53.645,361.800 54.798 C 364.113 57.826,364.844 58.707,366.300 60.222 C 367.015 60.965,367.600 61.849,367.600 62.187 C 367.600 62.524,367.780 62.800,368.000 62.800 C 368.220 62.800,368.400 63.036,368.400 63.325 C 368.400 63.613,368.760 64.236,369.200 64.708 C 369.640 65.180,370.000 65.844,370.000 66.183 C 370.000 66.522,370.180 66.800,370.400 66.800 C 370.620 66.800,370.800 67.149,370.800 67.576 C 370.800 68.003,370.980 68.464,371.200 68.600 C 371.420 68.736,371.600 69.287,371.600 69.824 C 371.600 70.361,371.780 70.800,372.000 70.800 C 372.220 70.800,372.400 71.250,372.400 71.800 C 372.400 72.350,372.580 72.800,372.800 72.800 C 373.020 72.800,373.200 73.340,373.200 74.000 C 373.200 74.660,373.380 75.200,373.600 75.200 C 373.820 75.200,374.000 75.920,374.000 76.800 C 374.000 77.680,374.180 78.400,374.400 78.400 C 374.644 78.400,374.800 80.267,374.800 83.200 C 374.800 86.133,374.644 88.000,374.400 88.000 C 374.180 88.000,374.000 88.720,374.000 89.600 C 374.000 90.480,373.820 91.200,373.600 91.200 C 373.380 91.200,373.200 91.740,373.200 92.400 C 373.200 93.060,373.020 93.600,372.800 93.600 C 372.580 93.600,372.400 94.035,372.400 94.567 C 372.400 95.098,372.265 95.593,372.100 95.667 C 371.700 95.845,370.000 99.149,370.000 99.749 C 370.000 100.010,369.640 100.483,369.200 100.800 C 368.760 101.117,368.400 101.604,368.400 101.881 C 368.400 102.404,365.143 106.000,364.669 106.000 C 364.521 106.000,364.400 105.640,364.400 105.200 C 364.400 104.760,364.220 104.400,364.000 104.400 C 363.780 104.400,363.600 104.080,363.600 103.688 C 363.600 103.297,363.240 102.717,362.800 102.400 C 362.360 102.083,362.000 101.503,362.000 101.112 C 362.000 100.720,361.820 100.400,361.600 100.400 C 361.380 100.400,361.200 100.040,361.200 99.600 C 361.200 99.160,361.020 98.800,360.800 98.800 C 360.580 98.800,360.400 98.530,360.400 98.200 C 360.400 97.870,360.241 97.600,360.047 97.600 C 359.852 97.600,359.593 97.285,359.471 96.900 C 359.227 96.130,357.942 93.917,357.556 93.600 C 357.422 93.490,357.032 92.860,356.690 92.200 C 356.348 91.540,355.693 90.603,355.234 90.117 C 354.775 89.631,354.400 89.091,354.400 88.917 C 354.399 88.743,353.949 88.077,353.400 87.438 C 352.850 86.799,352.400 86.132,352.400 85.956 C 352.400 85.780,351.991 85.223,351.491 84.718 C 350.992 84.213,350.139 83.172,349.596 82.404 C 348.438 80.767,347.485 79.678,344.100 76.129 C 342.725 74.687,341.600 73.353,341.600 73.164 C 341.600 72.717,327.283 58.400,326.836 58.400 C 326.647 58.400,325.313 57.275,323.871 55.900 C 320.322 52.515,319.233 51.562,317.596 50.404 C 316.828 49.861,315.787 49.008,315.282 48.509 C 314.777 48.009,314.205 47.600,314.010 47.600 C 313.816 47.600,313.419 47.365,313.129 47.077 C 312.838 46.789,311.340 45.710,309.800 44.679 C 308.260 43.648,306.812 42.668,306.583 42.502 C 305.569 41.767,303.741 40.732,303.100 40.529 C 302.715 40.407,302.400 40.148,302.400 39.953 C 302.400 39.759,302.130 39.600,301.800 39.600 C 301.470 39.600,301.200 39.420,301.200 39.200 C 301.200 38.980,300.840 38.800,300.400 38.800 C 299.960 38.800,299.600 38.620,299.600 38.400 C 299.600 38.180,299.280 38.000,298.888 38.000 C 298.497 38.000,297.917 37.640,297.600 37.200 C 297.283 36.760,296.703 36.400,296.312 36.400 C 295.920 36.400,295.600 36.233,295.600 36.028 C 295.600 35.823,295.229 35.598,294.775 35.528 C 293.856 35.385,296.164 32.400,297.193 32.400 C 297.461 32.400,298.183 31.860,298.800 31.200 C 299.417 30.540,300.209 30.000,300.560 30.000 C 300.912 30.000,301.200 29.820,301.200 29.600 C 301.200 29.380,301.560 29.200,302.000 29.200 C 302.440 29.200,302.800 29.020,302.800 28.800 C 302.800 28.580,303.160 28.400,303.600 28.400 C 304.040 28.400,304.400 28.220,304.400 28.000 C 304.400 27.780,304.850 27.600,305.400 27.600 C 305.950 27.600,306.400 27.420,306.400 27.200 C 306.400 26.980,306.940 26.800,307.600 26.800 C 308.260 26.800,308.800 26.620,308.800 26.400 C 308.800 26.180,309.520 26.000,310.400 26.000 C 311.280 26.000,312.000 25.820,312.000 25.600 C 312.000 25.358,313.733 25.200,316.400 25.200 C 319.067 25.200,320.800 25.358,320.800 25.600 M207.200 48.811 C 338.168 56.291,399.390 213.512,307.483 306.340 C 228.486 386.127,93.633 355.238,56.795 248.919 C 24.153 154.713,91.738 54.549,191.800 48.838 C 199.909 48.375,199.576 48.376,207.200 48.811 M35.600 294.800 C 35.600 295.240,35.780 295.600,36.000 295.600 C 36.220 295.600,36.400 295.920,36.400 296.312 C 36.400 296.703,36.760 297.283,37.200 297.600 C 37.640 297.917,38.000 298.497,38.000 298.888 C 38.000 299.280,38.180 299.600,38.400 299.600 C 38.620 299.600,38.800 299.960,38.800 300.400 C 38.800 300.840,38.980 301.200,39.200 301.200 C 39.420 301.200,39.600 301.470,39.600 301.800 C 39.600 302.130,39.759 302.400,39.953 302.400 C 40.148 302.400,40.407 302.715,40.529 303.100 C 40.773 303.870,42.058 306.083,42.444 306.400 C 42.578 306.510,42.968 307.140,43.310 307.800 C 43.652 308.460,44.307 309.397,44.766 309.883 C 45.225 310.369,45.600 310.909,45.600 311.083 C 45.601 311.257,46.051 311.923,46.600 312.562 C 47.150 313.201,47.600 313.868,47.600 314.044 C 47.600 314.220,48.009 314.777,48.509 315.282 C 49.008 315.787,49.861 316.828,50.404 317.596 C 51.562 319.233,52.515 320.322,55.900 323.871 C 57.275 325.313,58.400 326.647,58.400 326.836 C 58.400 327.283,72.717 341.600,73.164 341.600 C 73.353 341.600,74.687 342.725,76.129 344.100 C 79.678 347.485,80.767 348.438,82.404 349.596 C 83.172 350.139,84.213 350.992,84.718 351.491 C 85.223 351.991,85.795 352.400,85.990 352.400 C 86.184 352.400,86.581 352.635,86.871 352.923 C 87.162 353.211,88.660 354.290,90.200 355.321 C 91.740 356.352,93.188 357.332,93.417 357.498 C 94.431 358.233,96.259 359.268,96.900 359.471 C 97.285 359.593,97.600 359.852,97.600 360.047 C 97.600 360.241,97.870 360.400,98.200 360.400 C 98.530 360.400,98.800 360.580,98.800 360.800 C 98.800 361.020,99.160 361.200,99.600 361.200 C 100.040 361.200,100.400 361.380,100.400 361.600 C 100.400 361.820,100.720 362.000,101.112 362.000 C 101.503 362.000,102.083 362.360,102.400 362.800 C 102.717 363.240,103.297 363.600,103.688 363.600 C 104.080 363.600,104.400 363.780,104.400 364.000 C 104.400 364.220,104.760 364.400,105.200 364.400 C 105.640 364.400,106.000 364.521,106.000 364.669 C 106.000 365.143,102.404 368.400,101.881 368.400 C 101.604 368.400,101.117 368.760,100.800 369.200 C 100.483 369.640,99.903 370.000,99.512 370.000 C 99.120 370.000,98.800 370.180,98.800 370.400 C 98.800 370.620,98.440 370.800,98.000 370.800 C 97.560 370.800,97.200 370.980,97.200 371.200 C 97.200 371.420,96.840 371.600,96.400 371.600 C 95.960 371.600,95.600 371.780,95.600 372.000 C 95.600 372.220,95.150 372.400,94.600 372.400 C 94.050 372.400,93.600 372.580,93.600 372.800 C 93.600 373.020,93.060 373.200,92.400 373.200 C 91.740 373.200,91.200 373.380,91.200 373.600 C 91.200 373.820,90.480 374.000,89.600 374.000 C 88.720 374.000,88.000 374.180,88.000 374.400 C 88.000 374.642,86.267 374.800,83.600 374.800 C 80.933 374.800,79.200 374.642,79.200 374.400 C 79.200 374.180,78.491 374.000,77.624 374.000 C 76.757 374.000,75.936 373.820,75.800 373.600 C 75.664 373.380,74.933 373.200,74.176 373.200 C 73.419 373.200,72.800 373.020,72.800 372.800 C 72.800 372.580,72.350 372.400,71.800 372.400 C 71.250 372.400,70.800 372.220,70.800 372.000 C 70.800 371.780,70.361 371.600,69.824 371.600 C 69.287 371.600,68.736 371.420,68.600 371.200 C 68.464 370.980,68.003 370.800,67.576 370.800 C 67.149 370.800,66.800 370.620,66.800 370.400 C 66.800 370.180,66.522 370.000,66.183 370.000 C 65.844 370.000,65.180 369.640,64.708 369.200 C 64.236 368.760,63.613 368.400,63.325 368.400 C 63.036 368.400,62.800 368.220,62.800 368.000 C 62.800 367.780,62.524 367.600,62.187 367.600 C 61.849 367.600,60.965 367.015,60.222 366.300 C 58.707 364.844,57.826 364.113,54.798 361.800 C 53.645 360.920,51.645 359.175,50.352 357.923 C 49.060 356.671,47.486 355.342,46.855 354.969 C 46.225 354.596,45.402 353.772,45.027 353.137 C 44.652 352.503,43.142 350.737,41.672 349.213 C 39.331 346.787,37.897 345.069,35.600 341.938 C 35.270 341.488,34.415 340.514,33.700 339.773 C 32.985 339.033,32.400 338.151,32.400 337.813 C 32.400 337.476,32.220 337.200,32.000 337.200 C 31.780 337.200,31.600 336.964,31.600 336.675 C 31.600 336.387,31.240 335.764,30.800 335.292 C 30.360 334.820,30.000 334.156,30.000 333.817 C 30.000 333.478,29.820 333.200,29.600 333.200 C 29.380 333.200,29.200 332.851,29.200 332.424 C 29.200 331.997,29.020 331.536,28.800 331.400 C 28.580 331.264,28.400 330.713,28.400 330.176 C 28.400 329.639,28.220 329.200,28.000 329.200 C 27.780 329.200,27.600 328.750,27.600 328.200 C 27.600 327.650,27.420 327.200,27.200 327.200 C 26.980 327.200,26.800 326.581,26.800 325.824 C 26.800 325.067,26.620 324.336,26.400 324.200 C 26.180 324.064,26.000 323.243,26.000 322.376 C 26.000 321.509,25.820 320.800,25.600 320.800 C 25.358 320.800,25.200 319.067,25.200 316.400 C 25.200 313.733,25.358 312.000,25.600 312.000 C 25.820 312.000,26.000 311.280,26.000 310.400 C 26.000 309.520,26.180 308.800,26.400 308.800 C 26.620 308.800,26.800 308.260,26.800 307.600 C 26.800 306.940,26.980 306.400,27.200 306.400 C 27.420 306.400,27.600 305.965,27.600 305.433 C 27.600 304.902,27.735 304.407,27.900 304.333 C 28.273 304.167,30.000 300.870,30.000 300.323 C 30.000 300.102,30.540 299.417,31.200 298.800 C 31.860 298.183,32.400 297.476,32.400 297.228 C 32.400 296.736,34.814 294.072,35.300 294.027 C 35.465 294.012,35.600 294.360,35.600 294.800 " stroke="none" fill="#2c2c34" fill-rule="evenodd"></path>
    <path id="path1" d="M192.000 49.637 C 185.178 50.042,176.655 51.058,172.200 51.998 C 171.320 52.183,169.520 52.558,168.200 52.831 C 166.105 53.263,160.674 54.602,157.000 55.590 C 153.620 56.500,145.325 59.475,141.400 61.185 C 140.520 61.568,138.991 62.223,138.002 62.641 C 107.097 75.691,75.691 107.097,62.641 138.002 C 62.223 138.991,61.568 140.520,61.185 141.400 C 59.475 145.325,56.500 153.620,55.590 157.000 C 54.602 160.674,53.263 166.105,52.831 168.200 C 52.558 169.520,52.183 171.320,51.998 172.200 C 48.692 187.879,48.692 212.121,51.998 227.800 C 52.183 228.680,52.558 230.480,52.831 231.800 C 53.263 233.895,54.602 239.326,55.590 243.000 C 56.500 246.380,59.475 254.675,61.185 258.600 C 61.568 259.480,62.223 261.009,62.641 261.998 C 75.691 292.903,107.097 324.309,138.002 337.359 C 138.991 337.777,140.520 338.432,141.400 338.815 C 145.325 340.525,153.620 343.500,157.000 344.410 C 160.674 345.398,166.105 346.737,168.200 347.169 C 169.520 347.442,171.320 347.817,172.200 348.002 C 187.879 351.308,212.121 351.308,227.800 348.002 C 228.680 347.817,230.480 347.442,231.800 347.169 C 233.895 346.737,239.326 345.398,243.000 344.410 C 246.380 343.500,254.675 340.525,258.600 338.815 C 259.480 338.432,261.009 337.777,261.998 337.359 C 292.903 324.309,324.309 292.903,337.359 261.998 C 337.777 261.009,338.432 259.480,338.815 258.600 C 340.525 254.675,343.500 246.380,344.410 243.000 C 345.398 239.326,346.737 233.895,347.169 231.800 C 347.442 230.480,347.817 228.680,348.002 227.800 C 351.308 212.121,351.308 187.879,348.002 172.200 C 347.817 171.320,347.442 169.520,347.169 168.200 C 346.737 166.105,345.398 160.674,344.410 157.000 C 343.500 153.620,340.525 145.325,338.815 141.400 C 338.432 140.520,337.777 138.991,337.359 138.002 C 324.309 107.097,292.903 75.691,261.998 62.641 C 261.009 62.223,259.480 61.568,258.600 61.185 C 254.675 59.475,246.380 56.500,243.000 55.590 C 239.326 54.602,233.895 53.263,231.800 52.831 C 230.480 52.558,228.680 52.183,227.800 51.998 C 221.624 50.695,203.929 49.029,198.715 49.258 C 197.992 49.290,194.970 49.460,192.000 49.637 M182.976 70.862 C 189.499 73.409,192.521 81.527,189.304 87.859 L 188.064 90.298 198.555 101.049 L 209.045 111.800 209.623 110.031 C 210.621 106.971,211.088 107.023,215.073 110.641 C 219.350 114.525,226.312 120.167,229.492 122.327 C 232.111 124.105,238.623 128.000,238.978 128.000 C 239.105 128.000,239.972 128.341,240.904 128.757 C 243.819 130.058,245.151 130.441,249.400 131.206 C 250.500 131.403,252.570 131.833,254.000 132.159 C 255.430 132.486,260.020 133.485,264.200 134.380 C 271.482 135.939,272.591 136.197,276.200 137.162 C 304.217 144.658,323.223 167.270,321.830 191.451 C 320.052 222.310,291.278 246.622,266.000 238.624 C 258.582 236.277,252.639 233.229,247.800 229.289 C 230.865 215.500,224.877 205.432,218.009 179.200 C 212.331 157.512,211.512 156.110,194.208 138.467 C 186.278 130.381,186.324 130.550,191.600 128.979 L 193.800 128.325 182.758 117.343 L 171.715 106.362 169.717 107.604 C 162.985 111.789,153.218 107.263,151.637 99.226 C 150.177 91.805,156.231 84.400,163.759 84.400 L 165.488 84.400 165.715 82.300 C 166.744 72.790,174.594 67.589,182.976 70.862 M208.493 114.000 C 208.493 114.770,208.575 115.085,208.676 114.700 C 208.776 114.315,208.776 113.685,208.676 113.300 C 208.575 112.915,208.493 113.230,208.493 114.000 M208.120 120.000 C 208.120 121.210,208.195 121.705,208.287 121.100 C 208.378 120.495,208.378 119.505,208.287 118.900 C 208.195 118.295,208.120 118.790,208.120 120.000 M201.505 126.683 C 202.002 126.779,202.722 126.775,203.105 126.675 C 203.487 126.575,203.080 126.496,202.200 126.501 C 201.320 126.505,201.007 126.587,201.505 126.683 M121.763 145.207 C 124.872 146.793,123.945 149.202,117.117 157.280 C 99.637 177.960,99.268 187.783,115.241 207.200 C 125.299 219.426,125.732 221.132,119.000 221.989 C 114.828 222.520,106.828 221.491,103.605 220.010 C 94.830 215.977,91.096 213.381,86.944 208.427 C 70.727 189.079,76.347 161.057,98.934 148.646 C 105.308 145.144,117.916 143.244,121.763 145.207 M179.353 258.939 C 180.707 260.393,181.344 261.580,185.571 270.524 C 192.256 284.668,197.911 289.725,208.000 290.578 C 212.137 290.928,219.925 290.023,224.960 288.607 C 238.776 284.723,241.326 285.820,237.326 293.929 C 228.843 311.124,207.425 318.598,190.200 310.373 C 172.383 301.865,164.687 280.685,172.979 262.978 C 175.489 257.619,177.145 256.569,179.353 258.939 " stroke="none" fill="#fbaa32" fill-rule="evenodd"></path>
    <path id="path2" d="M198.500 48.691 C 199.325 48.778,200.675 48.778,201.500 48.691 C 202.325 48.605,201.650 48.534,200.000 48.534 C 198.350 48.534,197.675 48.605,198.500 48.691 M111.472 145.022 C 106.609 145.671,102.070 147.052,98.800 148.879 C 66.814 166.748,72.650 211.678,108.200 221.243 C 111.360 222.094,120.741 221.991,122.116 221.091 C 124.490 219.537,123.532 217.631,115.291 207.500 C 98.859 187.301,99.286 178.187,117.688 156.287 C 126.287 146.054,124.741 143.252,111.472 145.022 M48.534 200.000 C 48.534 201.650,48.605 202.325,48.691 201.500 C 48.778 200.675,48.778 199.325,48.691 198.500 C 48.605 197.675,48.534 198.350,48.534 200.000 M351.334 200.000 C 351.334 201.650,351.405 202.325,351.491 201.500 C 351.578 200.675,351.578 199.325,351.491 198.500 C 351.405 197.675,351.334 198.350,351.334 200.000 M175.552 258.848 C 174.615 259.785,171.451 266.308,171.015 268.200 C 163.299 301.714,197.532 325.798,226.077 306.938 C 234.953 301.073,242.527 286.393,236.671 286.401 C 235.491 286.403,228.319 287.827,225.600 288.599 C 204.919 294.476,194.818 290.069,185.723 271.200 C 180.890 261.175,180.302 260.051,179.319 258.969 C 178.231 257.772,176.678 257.722,175.552 258.848 M198.500 351.491 C 199.325 351.578,200.675 351.578,201.500 351.491 C 202.325 351.405,201.650 351.334,200.000 351.334 C 198.350 351.334,197.675 351.405,198.500 351.491 " stroke="none" fill="#78b051" fill-rule="evenodd"></path>
    <path id="path3" d="M175.600 70.154 C 169.661 71.846,166.414 75.835,165.715 82.300 L 165.488 84.400 163.759 84.400 C 156.231 84.400,150.177 91.805,151.637 99.226 C 153.219 107.266,162.985 111.789,169.721 107.601 L 171.723 106.357 182.632 117.239 L 193.540 128.121 198.270 127.226 C 200.872 126.733,204.170 126.119,205.600 125.861 L 208.200 125.391 208.108 122.796 C 208.058 121.368,208.179 118.235,208.377 115.833 L 208.738 111.466 198.399 100.885 L 188.061 90.304 189.302 87.862 C 193.932 78.750,185.171 67.428,175.600 70.154 " stroke="none" fill="#fbe9b1" fill-rule="evenodd"></path>
    <path id="path4" d="M190.000 49.036 C 189.230 49.125,186.530 49.394,184.000 49.635 C 172.826 50.697,159.213 53.833,148.745 57.755 C 146.624 58.550,144.784 59.200,144.655 59.200 C 144.526 59.200,143.241 59.740,141.800 60.400 C 140.359 61.060,139.093 61.600,138.986 61.600 C 138.530 61.600,129.845 65.959,125.800 68.219 C 102.186 81.409,81.382 102.200,68.256 125.728 C 65.964 129.837,61.600 138.529,61.600 138.986 C 61.600 139.093,61.060 140.359,60.400 141.800 C 59.740 143.241,59.200 144.526,59.200 144.655 C 59.200 144.784,58.550 146.624,57.755 148.745 C 47.912 175.016,46.107 208.243,53.031 235.751 C 54.775 242.679,57.776 252.190,58.819 254.095 C 59.029 254.477,59.200 254.967,59.200 255.185 C 59.200 255.402,59.740 256.759,60.400 258.200 C 61.060 259.641,61.600 260.907,61.600 261.014 C 61.600 261.471,65.964 270.163,68.256 274.272 C 81.382 297.800,102.186 318.591,125.800 331.781 C 129.845 334.041,138.530 338.400,138.986 338.400 C 139.093 338.400,140.359 338.940,141.800 339.600 C 143.241 340.260,144.526 340.800,144.655 340.800 C 144.784 340.800,146.624 341.450,148.745 342.245 C 180.343 354.085,219.657 354.085,251.255 342.245 C 253.376 341.450,255.216 340.800,255.345 340.800 C 255.474 340.800,256.759 340.260,258.200 339.600 C 259.641 338.940,260.907 338.400,261.014 338.400 C 261.470 338.400,270.155 334.041,274.200 331.781 C 297.814 318.591,318.618 297.800,331.744 274.272 C 334.036 270.163,338.400 261.471,338.400 261.014 C 338.400 260.907,338.940 259.641,339.600 258.200 C 340.260 256.759,340.800 255.474,340.800 255.345 C 340.800 255.216,341.450 253.376,342.245 251.255 C 352.088 224.984,353.893 191.757,346.969 164.249 C 345.225 157.321,342.224 147.810,341.181 145.905 C 340.971 145.523,340.800 145.033,340.800 144.815 C 340.800 144.598,340.260 143.241,339.600 141.800 C 338.940 140.359,338.400 139.093,338.400 138.986 C 338.400 138.529,334.036 129.837,331.744 125.728 C 318.618 102.200,297.814 81.409,274.200 68.219 C 270.155 65.959,261.470 61.600,261.014 61.600 C 260.907 61.600,259.641 61.060,258.200 60.400 C 256.759 59.740,255.474 59.200,255.345 59.200 C 255.216 59.200,253.376 58.550,251.255 57.755 C 233.882 51.246,205.662 47.229,190.000 49.036 M206.915 49.602 C 215.024 50.075,223.046 50.995,227.800 51.998 C 228.680 52.183,230.480 52.558,231.800 52.831 C 233.895 53.263,239.326 54.602,243.000 55.590 C 246.380 56.500,254.675 59.475,258.600 61.185 C 259.480 61.568,261.009 62.223,261.998 62.641 C 292.903 75.691,324.309 107.097,337.359 138.002 C 337.777 138.991,338.432 140.520,338.815 141.400 C 340.525 145.325,343.500 153.620,344.410 157.000 C 345.398 160.674,346.737 166.105,347.169 168.200 C 347.442 169.520,347.817 171.320,348.002 172.200 C 351.308 187.879,351.308 212.121,348.002 227.800 C 347.817 228.680,347.442 230.480,347.169 231.800 C 346.737 233.895,345.398 239.326,344.410 243.000 C 343.500 246.380,340.525 254.675,338.815 258.600 C 338.432 259.480,337.777 261.009,337.359 261.998 C 324.309 292.903,292.903 324.309,261.998 337.359 C 261.009 337.777,259.480 338.432,258.600 338.815 C 254.675 340.525,246.380 343.500,243.000 344.410 C 239.326 345.398,233.895 346.737,231.800 347.169 C 230.480 347.442,228.680 347.817,227.800 348.002 C 212.121 351.308,187.879 351.308,172.200 348.002 C 171.320 347.817,169.520 347.442,168.200 347.169 C 166.105 346.737,160.674 345.398,157.000 344.410 C 153.620 343.500,145.325 340.525,141.400 338.815 C 140.520 338.432,138.991 337.777,138.002 337.359 C 107.097 324.309,75.691 292.903,62.641 261.998 C 62.223 261.009,61.568 259.480,61.185 258.600 C 59.475 254.675,56.500 246.380,55.590 243.000 C 54.602 239.326,53.263 233.895,52.831 231.800 C 52.558 230.480,52.183 228.680,51.998 227.800 C 48.692 212.121,48.692 187.879,51.998 172.200 C 52.183 171.320,52.558 169.520,52.831 168.200 C 53.263 166.105,54.602 160.674,55.590 157.000 C 56.500 153.620,59.475 145.325,61.185 141.400 C 61.568 140.520,62.223 138.991,62.641 138.002 C 75.691 107.097,107.097 75.691,138.002 62.641 C 138.991 62.223,140.520 61.568,141.400 61.185 C 145.325 59.475,153.620 56.500,157.000 55.590 C 160.674 54.602,166.105 53.263,168.200 52.831 C 169.520 52.558,171.320 52.183,172.200 51.998 C 177.976 50.780,188.248 49.718,198.715 49.258 C 199.439 49.226,203.129 49.381,206.915 49.602 M210.415 108.181 C 209.287 109.541,208.722 112.770,208.509 119.078 C 208.356 123.587,208.143 125.613,207.807 125.742 C 207.542 125.844,205.902 126.144,204.163 126.409 C 193.351 128.059,187.326 129.893,187.682 131.425 C 187.747 131.705,190.684 134.874,194.208 138.467 C 211.511 156.107,212.331 157.511,218.009 179.200 C 224.877 205.432,230.865 215.500,247.800 229.289 C 252.639 233.229,258.582 236.277,266.000 238.624 C 291.278 246.622,320.052 222.310,321.830 191.451 C 323.223 167.270,304.217 144.658,276.200 137.162 C 272.591 136.197,271.482 135.939,264.200 134.380 C 260.020 133.485,255.430 132.486,254.000 132.159 C 252.570 131.833,250.500 131.403,249.400 131.206 C 245.151 130.441,243.819 130.058,240.904 128.757 C 239.972 128.341,239.105 128.000,238.978 128.000 C 238.623 128.000,232.111 124.105,229.492 122.327 C 226.338 120.185,219.363 114.536,215.161 110.722 C 211.542 107.436,211.190 107.248,210.415 108.181 M113.700 144.676 C 114.085 144.776,114.715 144.776,115.100 144.676 C 115.485 144.575,115.170 144.493,114.400 144.493 C 113.630 144.493,113.315 144.575,113.700 144.676 M77.709 185.200 C 77.709 186.190,77.787 186.595,77.882 186.100 C 77.978 185.605,77.978 184.795,77.882 184.300 C 77.787 183.805,77.709 184.210,77.709 185.200 M89.200 211.000 C 90.395 212.210,91.463 213.200,91.573 213.200 C 91.683 213.200,90.795 212.210,89.600 211.000 C 88.405 209.790,87.337 208.800,87.227 208.800 C 87.117 208.800,88.005 209.790,89.200 211.000 M169.709 280.400 C 169.709 281.390,169.787 281.795,169.882 281.300 C 169.978 280.805,169.978 279.995,169.882 279.500 C 169.787 279.005,169.709 279.410,169.709 280.400 M238.768 288.700 C 238.959 290.081,238.987 290.109,239.119 289.051 C 239.198 288.419,239.105 287.745,238.912 287.552 C 238.710 287.350,238.649 287.840,238.768 288.700 M206.305 290.683 C 206.802 290.779,207.522 290.775,207.905 290.675 C 208.287 290.575,207.880 290.496,207.000 290.501 C 206.120 290.505,205.807 290.587,206.305 290.683 M213.505 290.683 C 214.002 290.779,214.722 290.775,215.105 290.675 C 215.487 290.575,215.080 290.496,214.200 290.501 C 213.320 290.505,213.007 290.587,213.505 290.683 M179.583 302.900 C 181.241 304.666,181.600 304.984,181.600 304.683 C 181.600 304.619,180.745 303.764,179.700 302.783 L 177.800 301.000 179.583 302.900 M201.505 313.483 C 202.002 313.579,202.722 313.575,203.105 313.475 C 203.487 313.375,203.080 313.296,202.200 313.301 C 201.320 313.305,201.007 313.387,201.505 313.483 M208.300 313.482 C 208.795 313.578,209.605 313.578,210.100 313.482 C 210.595 313.387,210.190 313.309,209.200 313.309 C 208.210 313.309,207.805 313.387,208.300 313.482 " stroke="none" fill="#c46c4b" fill-rule="evenodd"></path>
  </g>
</svg>